<svg xmlns="http://www.w3.org/2000/svg" xmlns:xlink="http://www.w3.org/1999/xlink" width="525" height="602.964" viewBox="0 0 525 602.964">
  <defs>
    <path id="path-1" fill-rule="evenodd" d="M88.90111992 14.7045921h179c19.86894088 0 36 16.13105912 36 36v444c0 19.86894088-16.13105912 36-36 36h-179c-19.86894089 0-36-16.13105912-36-36v-444c0-19.86894088 16.13105911-36 36-36z"/>
    <filter id="filter-2" width="200%" height="200%" x="-50%" y="-50%" color-interpolation-filters="sRGB" filterUnits="userSpaceOnUse">
      <feOffset dx="-10" dy="22" in="SourceAlpha" result="shadow-1-feOffset-shadow"/>
      <feGaussianBlur in="shadow-1-feOffset-shadow" result="shadow-1-feGaussianBlur-shadow" stdDeviation="20.482"/>
      <feColorMatrix in="shadow-1-feGaussianBlur-shadow" result="shadow-1-feColorMatrix-shadow" type="matrix" values="0 0 0 0 0  0 0 0 0 0  0 0 0 0 0  0 0 0 0.1 0"/>
    </filter>
    <rect id="rect-4" width="319" height="504" x="71.901" y="14.705" rx="0" ry="0"/>
    <mask id="mask-5" maskContentUnits="userSpaceOnUse" maskUnits="userSpaceOnUse">
      <rect width="525" height="602.964" x="0" y="0" fill="black"/>
      <use fill="white" xlink:href="#rect-4"/>
    </mask>
    <rect id="rect-6" width="232.627" height="177.652" x="0" y="0"/>
    <rect id="rect-9" width="513" height="409" x="0" y="0"/>
    <rect id="rect-14" width="104.31" height="68.452" x="0" y="0"/>
    <rect id="rect-16" width="104.31" height="68.452" x="0" y="0"/>
    <rect id="rect-19" width="437.886" height="319.433" x="0" y="0"/>
    <rect id="rect-26" width="136" height="104" x="0" y="0"/>
    <rect id="rect-29" width="300" height="239" x="0" y="0"/>
    <rect id="rect-32" width="61" height="40" x="0" y="0"/>
    <rect id="rect-34" width="61" height="40" x="0" y="0"/>
    <rect id="rect-38" width="256" height="187" x="0" y="0"/>
  </defs>
  <g>
    <g transform="rotate(-2 221.90111992 272.7045921)">
      <g>
        <use fill="black" stroke="black" stroke-opacity="0" stroke-width="0" filter="url(#filter-2)" xlink:href="#path-1"/>
        <use fill="rgb(242,242,242)" xlink:href="#path-1"/>
      </g>
      <path fill="rgb(31,40,207)" fill-rule="evenodd" d="M116.90111992 25.7045921h-29c-13.24584961 0-24 10.7541504-24 24v445.31860352c0 13.24609375 10.75415039 24 24 24H268.1750457c13.24609375 0 24-10.75390625 24-24V49.7045921c0-13.2458496-10.75390625-24-24-24h-28.31030274v3.82104492c0 7.72680664-6.27319336 14-14 14h-94.96362304c-7.72680665 0-14-6.27319336-14-14V25.7045921z"/>
      <g>
        <use fill="none" xlink:href="#rect-4"/>
        <g mask="url(#mask-5)">
          <g transform="rotate(14.000005 167.5037571 306.87092295)">
            <g transform="rotate(32.000011 221.2378919 349.54423983)">
              <path fill="rgb(178,139,103)" fill-rule="evenodd" d="M157.61047064 68.55666483c9.91197967 18.45044422 8.73418426 65.2515192-4.07617188 68.54914188-5.10874939 1.31507874-15.99189758-1.90634155-27.06840896-8.57369995l6.95250702 49.12039184H92.36658178l14.13255501-65.78245925C98.6173433 102.6308273 93.282781 91.3080467 94.17418955 78.62054289c2.56839645-36.55622673 53.52430141-28.51432229 63.43628109-10.06387806z"/>
              <path fill="rgb(25,24,71)" fill-rule="evenodd" d="M145.39184189 34.16394043c9.4404602 0 17.10491943 7.6541748 17.10491943 17.08197021 0 9.12240601-7.17596435 16.58423615-16.1933136 17.05807496-5.1566925 1.58827972-11.77848816 2.75489807-19.11785888 3.2471466.71354675 2.67961884 1.10131836 5.7237854 1.10131836 9.16384888 0 3.09721374-.3490448 6.3856659-.99067688 9.72283173-1.70710755-2.04862977-4.08203125-3.31976319-6.70652771-3.31976319-5.19224549 0-9.40769959 4.9752121-9.40769959 11.10327912 0 6.12806701 4.2154541 11.10328674 9.40769959 11.10328674.0349884 0 .06991577-.00022888.10481262-.00067902-5.08958435 9.7461853-12.1242981 17.08264923-19.15228272 17.08264923-13.36016845 0-22.85958862-17.83822631-22.85958862-37.01737213 0-.67385864.0133667-1.34322357.03974915-2.00759887-4.5227852 3.09947204-8.71366501 7.16220855-12.93476487 11.25424194-8.9688797 8.69463348-18.07419204 17.52153778-30.78968048 17.52153778-25.44103527 0-35.54473114-51.24591065 0-51.24591065 24.17311478 0 36.06372834 3.51970673 46.31111527 8.72452546 2.02426147-5.6990509 5.11257934-10.48914338 8.88908386-13.83068848.88847351-.99098206 2.2342987-1.94031143 3.9634552-2.82296371 1.15492249-.64024354 2.35266113-1.1569252 3.58529663-1.53872681 6.17927551-2.25426865 15.09907532-3.84395218 25.05085755-4.19147492 1.86676025-.06518936 3.70036315-.08424377 5.48924255-.06018066.02915954-9.40303421 7.6823883-17.02803421 17.10484314-17.02803421z"/>
            </g>
            <g transform="translate(-106.39103187 268.86614425)">
              <path fill="rgb(31,40,207)" fill-rule="evenodd" d="M166.56738101 167.85783393s61.53267765 17.22382059 106.17706912 17.22382059S355.68 158.55727575 355.68 158.55727575s-60.21532215-17.67868396-99.18-17.67868396c-38.96467785 0-89.93261899 26.97924214-89.93261899 26.97924214z"/>
              <path fill="rgb(178,139,103)" fill-rule="evenodd" d="M308.25628862 201.63242607c-.39554795-.5950901-.72958917-1.24242873-.99454319-1.94364963C301.77846873 185.17686902 213.9498733 28.62235665 205.2 0h98.88260929c6.65265223 21.76198196 36.59559115 158.32879355 40.80954862 185.57588537 13.29581059 42.97933672 40.67055486 182.17371737 44.16516621 191.81667848 3.67627185 10.14423149-17.00888928 20.71189812-22.5209979 8.2408233-8.77069549-19.84358569-29.66863713-74.75043074-38.97362487-108.27616733-8.723406-31.43030601-15.82658811-59.7067555-19.30641273-75.72479375z"/>
              <path fill="rgb(0,0,0)" fill-opacity=".1" fill-rule="evenodd" d="M308.25628862 201.63242607c-.39554795-.5950901-.72958917-1.24242873-.99454319-1.94364963C301.77846873 185.17686902 213.9498733 28.62235665 205.2 0h98.88260929c6.65265223 21.76198196 36.59559115 158.32879355 40.80954862 185.57588537 13.29581059 42.97933672 40.67055486 182.17371737 44.16516621 191.81667848 3.67627185 10.14423149-17.00888928 20.71189812-22.5209979 8.2408233-8.77069549-19.84358569-29.66863713-74.75043074-38.97362487-108.27616733-8.723406-31.43030601-15.82658811-59.7067555-19.30641273-75.72479375z"/>
              <path fill="rgb(178,139,103)" fill-rule="evenodd" d="M227.3565759 220.74636215c-40.15379006 10.15634007-187.02788679 28.51720593-197.10703056 31.39706118-10.36829436 2.96247256-19.45930458-18.42511564-6.64353278-23.0580297 20.39205676-7.3717485 76.58140316-24.40448883 110.64920707-31.35521376 27.40207842-5.59074221 52.40681128-10.1527806 69.19433029-12.82425996C202.02735025 137.71396263 195.52611225 24.4605026 199.78731549 0H287.28c-4.08620738 23.45597727-38.62870784 194.60479073-45.04892445 211.73630318-2.03746224 6.11606487-8.11682435 8.81891402-14.87449966 9.01005897z"/>
              <path fill="rgb(228,228,228)" fill-rule="evenodd" d="M27.56845683 226.25350948c.34591002-1.11910737-.33965376-2.29459785-1.48402153-2.54455274 0 0-8.79215094-1.9203976-13.350765-1.1165933-4.55861404.80380431-13.03669049 3.86361264-13.03669049 3.86361264l16.74781554 94.98185906s12.901979 1.54251262 12.47215231-6.6065041c-.42982668-8.14901673-.57308824-13.56392239-.57308824-13.56392239l12.08866508-48.3277853c.13676514-.54675653-.20509554-1.09846576-.75557487-1.21937866l-8.10314385-1.77985722s-4.75008335-6.77645426-5.56414776-11.39325643c-.81406441-4.61680218 1.5587988-12.29362156 1.5587988-12.29362156z"/>
              <path fill="rgb(228,228,228)" fill-rule="evenodd" d="M363.57155167 381.51679308c-1.04203924-.5349853-2.31871804-.06395793-2.76359239 1.01962034 0 0-3.41795928 8.32510657-3.41795928 12.95404418C357.39 400.11939522 358.93112487 409 358.93112487 409h96.44709885s3.75947732-12.43811632-4.34037665-13.42987753c-8.09985397-.9917612-13.45737255-1.79096194-13.45737255-1.79096194l-45.49441312-20.29702022c-.51470116-.2296304-1.11739206.01123365-1.33205749.53235376l-3.15990952 7.6709715s-7.49834626 3.50120373-12.18636964 3.50120373c-4.68802338 0-11.83617308-3.66987622-11.83617308-3.66987622z"/>
              <path fill="rgb(43,68,255)" fill-rule="evenodd" d="M200.07 0s57.83264317-16.5586963 109.44 0c11.97 54.65449578 41.05528727 76.34690756 46.17 160.14134155-58.14 28.9103077-129.96-20.61850913-189.81 7.57486004C148.77 128.28072339 172.71 33.30957284 200.07 0z"/>
            </g>
            <g transform="rotate(21.000008 -103.14762022 110.07617572)">
              <path fill="rgb(178,139,103)" fill-rule="evenodd" d="M331.9068489 152.2342987l48.45968629 47.21220399c14.09909057 6.00738525 25.65145874 12.64031982 34.65716552 19.89874267 2.0253296 2.43969727 4.23046875 7.11405945-5.29754638 5.0213623-9.52804566-2.0927124-19.64422608-3.86601257-21.43460083-.77182006-.78396607 1.35487365-.2128296 3.02574157.39920044 4.81625366.78564453 2.29840088 1.63851928 4.79351807-.22149659 7.06970215-2.20602417 2.69961548-9.62704467-5.88897705-22.26315307-25.76574707l-50.3894043-29.6729126 16.09014893-27.80778503zM61.57133485 296.71200563c12.58700561-8.62200928 30.7263794-23.71099854 33.17808533-28.67669678 5.0150299-10.15744019 22.11099243-109.14627075 22.11099243-109.14627075l35.74272537.13064575S119.4697113 265.76391602 116.82943726 272.2955017c-3.4298172 8.4847107 2.38889312 20.80935669 6.33444595 29.16644287.61039734 1.29290771 1.17596435 2.49084473 1.65553284 3.56491089-5.47852707 2.449646-8.10908127-.50875855-10.88238144-3.62771607-3.13239289-3.52279663-6.4468689-7.25039672-14.2527237-3.62161254-3.01579284 1.40197753-5.86965942 3.05932617-8.6578598 4.67852783-9.63095856 5.59307861-18.47850037 10.73117065-30.51041412 3.3182373-1.90750122-1.17523193-3.99695587-5.60153198 1.05529785-9.06228637z"/>
              <path fill="rgb(25,24,71)" fill-rule="evenodd" d="M218.40868836 9.09865331l14.79039077-2.5318456c25.47217613 63.53185776 69.9377176 121.26110154 133.39662443 173.18773133l-47.94137511 58.16998748C255.20026217 163.991106 216.08346608 87.71515048 218.40868835 9.0986533z"/>
              <path fill="rgb(221,227,233)" fill-rule="evenodd" d="M153.94430297 194.73446037h131.70790366S239.8816648 83.59526788 239.8816648 5.91160918L200.1518966 0c-31.22386466 50.14994307-40.04156616 111.89467702-46.20759363 194.73446037z"/>
              <path fill="rgb(47,54,118)" fill-rule="evenodd" d="M94.07707214 251.10496521C108.48091125 88.81932068 199.27911377 0 199.27911377 0l.03160095.02805587c.0052185-.00935359.01043701-.01870554.01565552-.02805587h2.59339905c4.65483093.16007464 14.17980957.5768125 14.17980957.5768125l9.60015869 27.39812494c1.52320862 50.10707855 17.79077148 201.95858002 17.79077148 201.95858002H157.2795868c.14668274 6.96250915.47137451 14.02311706.9933014 21.17144775H94.07707213z"/>
              <path fill="rgb(0,0,0)" fill-opacity=".1" fill-rule="evenodd" d="M157.29431152 230.6065979c-.68814087-30.31996155 2.00531006-58.78923035 6.4985199-84.55255127 2.35006714 30.57104492 7.26158142 67.35697937 17.51934815 84.55255127h-24.01786805z"/>
              <path fill="rgb(255,255,255)" fill-opacity=".2" fill-rule="evenodd" d="M176.37039404 177.65249016l42.57261463-19.76508346v19.76508346h-42.57261463z"/>
            </g>
          </g>
        </g>
      </g>
    </g>
    <g transform="matrix(-1 0 0 1 743.47065341 0)">
      <g transform="rotate(-27.00001 584.6666193 -398.33812467)">
        <path fill="rgb(178,139,103)" fill-rule="evenodd" d="M92.14334106 40.13393307c5.79481125 10.8011217 5.1062355 38.1990633-2.38304138 40.12952518-2.9867134.76986695-9.34929657-1.1159935-15.82492256-5.01914596L78 104H54l8.26227379-38.50987244c-4.60790944-5.40875053-7.72663903-12.03725052-7.2054975-19.464674 1.50155377-21.40047406 31.29175353-16.69264244 37.08656477-5.8915205z"/>
        <path fill="rgb(25,24,71)" fill-rule="evenodd" d="M102.77569977 25.1604378c-.49699025-1.7469388-1.83376809-3.24268248-3.63530003-3.68642765-.43686886-.10763628-.88804292-.1511111-1.33756891-.13298564-.1612466.00643585-.20646949.05293157-.28181898-.05982712-.05590234-.08360036-.05715487-.28784003-.08016185-.38608523-.0715919-.30550578-.16111475-.60720258-.27160098-.90108443-.37694524-1.00235054-1.0103952-1.88944686-1.77404223-2.63672765-1.4283443-1.39802387-3.3582934-2.36287574-5.36339424-2.5374317-1.097413-.09548698-2.18684936.08281229-3.22433874.43980485-.53713708.18480079-1.0579913.4149152-1.56526546.66932823-.1527426.07657346-.64828254.4516258-.8015525.4273272-.16928916-.02679415-.50951554-.44748848-.64716186-.55308893-1.70139557-1.30536079-3.80241374-1.81858685-5.92162655-1.80289126-2.39200039.01766574-4.69533492.13718864-6.69028369 1.59536799-.42229997.3087237-.82449356.64673708-1.20743776 1.00261322-.20165713.187362-.3969857.38175088-.58328288.58421742-.11239798.12214977-.22182944.24705776-.3271737.37531503-.17878201.21770242-.1501057.28921914-.40034777.13731998-.96009628-.583298-2.07267147-.85609916-3.1932892-.71838514-.66542241.0818272-1.31284795.2816012-1.9275759.54455157-.20930416.08951083-.69376911.44656906-.91685108.45004968-.22130206.00341494-.698977-.32757155-.92693724-.41169728-1.2312358-.45451537-2.55832303-.56655167-3.85244897-.35653286-1.334932.21671734-2.64626373.74931662-3.77729724 1.48530185-.54399303.35403733-1.01863552.74629571-1.39986574 1.27272184-.16460865.22729052-.31339589.46771542-.49995675.67845662-.1092337.12339754-.32552565.250013-.3841308.40618083.0350708-.09351681-1.4599212-.6698536-1.6009955-.70669555-.7515832-.19629337-1.5168783-.15649618-2.25283785.08570186-1.38391248.45543478-2.57407853 1.4767645-3.5522376 2.52390329-.50239589.53785304-.9420335 1.13238094-1.31522116 1.76578663-.17884793.30340427-.34240182.61547724-.49204605.93418308-.07251482.15439469-.12057237.3475358-.21609418.48662894-.12314335.17921867-.20587618.18263361-.42889223.2607832-1.13261564.39678975-2.1650949 1.06841649-2.95135338 1.97593677-.79528986.91815914-1.31133173 2.0488326-1.5276896 3.23953022-.01272305.07013761-.02030415.36080153-.0613739.3987599-.05629788.05227486-.28406036.02915834-.37022115.03927181-.29836555.03500314-.59462157.08708097-.88692224.15629918-.53885107.12753487-1.06333102.31522522-1.55946427.56070686-1.93403631.95690557-3.3170918 2.75086545-3.99398473 4.76948898-.71024975 2.11844484-.69765854 4.54548204.15122638 6.62439239.13711894.33578053.3002773.66171028.4919142.97003995.11767178.18926648.15564318.18972618.07923893.38831807-.08517196.22092035-.24074922.43560186-.34187444.65146547-.32994246.7044627-.56060552 1.45161215-.7062944 2.21471988-.23903523 1.2517725-.35749809 2.56724675-.12169306 3.82854168.10949739.5856622.3002773 1.15819.59132544 1.67982208.1483917.26597128.32203174.51821713.51808546.75154947.10178445.1211647.20989746.23687862.32295466.34773282.06467004.06330773.14944647.11873484.20442589.1894635.13421835.17245446.1624332.03066878.09321451.28389971-.09677433.35403733-.31616464.70334628-.45051483 1.04786118-.1384374.35502241-.26355843.71490454-.378 1.07833295-.23178376.73591956-.42777155 1.4851705-.5503216 2.24729316-.23534358 1.46323608-.19401013 3.02235317.49811092 4.3652783.2959264.57443229.72046775 1.07833294 1.23538893 1.47032864.25202198.19176201.52500733.35705824.81137497.4928021.14713917.06987493.3350185.09982132.40212767.24213238.07225113.15301557-.03500489.45687955-.05946216.62795491-.21279805 1.48825709-.31952669 3.05085479.12287967 4.50929682.4074674 1.34331915 1.30460762 2.52935406 2.46939348 3.31459322 2.25962788 1.52326022 5.30551422 1.43736135 7.67978144.21789944.61888108-.31791778 1.197879-.71260602 1.71438232-1.17815428 1.31522116 1.770515 4.0216722 1.71449686 5.94390837 1.21000516 2.39483506-.62848029 4.31647793-2.2937232 5.42364746-4.48164894 1.51391178 1.84295113 4.69111588 1.24500829 5.74093278-.7543077.25696618-.48932148.40937915-1.0286193.48439904-1.57435297.03948762-.2869863.0143052-.57646812.04397035-.8611559.03783955-.3627717.28017092-.71529857.4194653-1.06624932.27127137-.68298798.43970353-1.38850144.44695502-2.12520905.00375758-.38464045-.0449592-.75949577-.08154622-1.14104964-.03289536-.34346415.06236275-.66348342.11648518-1.00248188-.61420057.10113476-1.36248765-.06448983-1.94115595-.24259208-.567857-.17475298-1.09972028-.63504748-1.5005295-1.05541345-.9306289-.97614744-1.49914513-2.25576483-1.88795643-3.5293404-.8534995-2.79525967-.50364843-6.14892769 2.30788319-7.68302377 1.30974959-.71464185 5.23359398-.71229776 6.7935638-.3590974 1.64023998.37137471 3.49971786 3.99062331 3.59121839 4.33080386.05662748.21054418.02814893.47113037.22156575.6114056.42506872.308461 1.12608931-.22683082 1.43961705-.49102896.54102651-.45596015.92693723-1.06263737 1.26116465-1.67758924.72824661-1.3397072 1.315353-2.77641182 1.73007188-4.24306285.31972446-1.13073914.52415034-2.2967441.9420335-3.39865328.41583957-1.0964584 1.07137358-2.07648049 2.09060241-2.69760552 1.10875168-.6756984 2.37967287-1.03157454 3.59686718-1.45620919 1.20651484-.42082567 2.39219815-.93516816 3.32744163-1.82810928.2056125-.19635904.40535787-.40499874.57088944-.6361639.13065853-.18250227.25980084-.5318769.458887-.64759082.30950646-.18000673.7612079.28810272 1.02885352.45806165 1.32042905.83863044 2.42206109 2.00824736 3.31056546 3.28596027.88356019 1.27075168 1.60856348 2.49349719 2.19771348 3.9124704.4370007 1.05239254.70973548 2.40017738 1.4783267 3.26264673.34312697.38510015 2.89367114.61807525 3.71981276.28186389.82614163-.33621137 1.7520241-1.2092171 2.02929442-1.75632987.28386258-.55998448.3516969-1.17513337.23039938-1.78818075-.07132822-.3606702-.2170171-.69756715-.29671748-1.0518015-.06710918-.29755948-.12802163-.57883232-.27285351-.85143646-.27450158-.51657534-.74347473-.88788438-1.30902444-1.0431328.58855669-.54264709 1.07625185-1.19181403 1.41370948-1.91748877.35064214-.75391366.64782108-1.67075935.73213604-2.49822556.06855947-.67208645-.03724625-1.36840583-.4051601-1.94599038-.38597664-.60588915-1.06972552-1.00116845-1.66131465-1.37911035.90366657-.70702391 1.67707014-1.56686638 2.31289331-2.51884655 1.23650962-1.85129147 2.00134325-4.18487753 1.37336487-6.39197947z"/>
      </g>
      <g transform="translate(225 363.96374379)">
        <path fill="rgb(178,139,103)" fill-rule="evenodd" d="M134 0l49.08163948 124.22690916 32.91925872 105.02338058H229L178.67368775 0H134z"/>
        <path fill="rgb(178,139,103)" fill-rule="evenodd" d="M124.11662798 0c-.52264934 43.65418883-8.14479524 102.42746848-9.36255726 105.14864846-1.21776203 2.72117999-84.07821614 69.20909005-84.07821614 69.20909005l8.95321673 9.58099789s97.76765962-57.00504128 102.29186585-64.60810882C146.4451434 111.72756003 161.17440013 41.76313698 173 0h-48.88337202z"/>
        <path fill="rgb(228,228,228)" fill-rule="evenodd" d="M32.04376599 172.58385375c-.26023727-1.14160481-1.441144-1.816478-2.55683238-1.46119721 0 0-4.15054873 1.32170439-6.22264534 3.0603988-2.07209661 1.7386944-5.4681012 5.76476716-5.4681012 5.76476716l36.25437255 43.20630613s6.9809796-2.98776421 4.38020397-6.98885084c-2.60077562-4.00108663-4.2569077-6.70133528-4.2569077-6.70133528l-7.89808401-27.59399627c-.15502975-.54163646-.72667895-.84835225-1.26370432-.67803484l-4.2144254 1.33660356s-4.38589927-2.04400248-6.1481228-4.14414002c-1.76222352-2.10013755-2.60575337-5.80052119-2.60575337-5.80052119z"/>
        <path fill="rgb(228,228,228)" fill-rule="evenodd" d="M213.4182776 223.35225237c-1.0417975-.5344558-2.31785241-.06362848-2.76284187 1.01940863 0 0-1.65543573 4.02908051-1.65543573 6.73400982C209 233.81060014 209.90124261 239 209.90124261 239h56.4018122s2.19852474-7.26823912-2.53823196-7.84777684c-4.7367567-.57953773-7.8698085-1.04655234-7.8698085-1.04655234l-26.2150217-11.68678736c-.51456887-.22939737-1.11697575.0113584-1.33169813.5322217l-1.68508143 4.08758988s-4.38499781 2.04593567-7.12653195 2.04593567c-2.74153414 0-6.11840355-1.73237834-6.11840355-1.73237834z"/>
        <path fill="rgb(105,161,172)" fill-rule="evenodd" d="M167 218.43288902l61.80446449-6.70756196L183 0h-55.3559269L167 218.43288902z"/>
        <path fill="rgb(137,197,204)" fill-rule="evenodd" d="M43.45995809 158.90047921L84 206.88596059s64.04992913-69.95399934 74.6825518-91.28999422C169.31517447 94.25997149 177.79892514 0 177.79892514 0h-62.32077926s-4.63425522 82.92581129-6.2476211 86.78475508c-1.61336588 3.85894379-65.7705667 72.11572413-65.7705667 72.11572413z"/>
      </g>
      <g transform="rotate(-14.000005 1318.26135347 -741.20021656)">
        <path fill="rgb(178,139,103)" fill-rule="evenodd" d="M198 77.61708832l36.2345581-15.91291428q9.5211792-9.48772812 18.38812256-14.42222214c1.76757813-.56274414 4.78741455-.73275375 1.56549073 3.97321701-3.22193909 4.70596695-6.39927674 9.8008461-5.11187744 11.45012665.56373596.72219849 1.59568786.77910996 2.70143127.8400917 1.4194336.07828141 2.96043396.16326905 3.78862 1.67089082.98223876 1.78804016-5.3040619 3.92690277-18.8588562 6.41659546l-27.13754273 20.80641174L198 77.61708832zM51.5082817 82L72 86.06584167q-30.91187286 57.60780335-33.15496826 61.06436158c-2.91384506 4.49014282-.94981003 12.21832275.38196945 17.45866394.2060318.81071472.3969345 1.56188965.55230331 2.23231506-3.41628265.79524231-4.59560394-1.19761658-5.83892059-3.29859924-1.40429306-2.37301636-2.89022636-4.88398743-7.7732277-3.67138672-1.88654899.46847534-3.70866775 1.10171509-5.48886489 1.72036743-6.1491251 2.13697815-11.79805756 4.10011292-17.87441301-1.50082397-.9633267-.88795472-1.66852749-3.66345215 1.61594152-5.08699036 8.18281079-3.54655457 20.27222347-10.18740845 22.23252201-12.76565552Q30.66217041 136.94424438 51.50828171 82z"/>
        <path fill="rgb(219,39,33)" fill-rule="evenodd" d="M127.6949953 5.33202834l8.6471231-1.48316788c18.8342622 18.27010313 26.52016873 62.16359952 39.07185676 67.97363505 11.86711317 5.49315351 28.68962585.17750532 48.68584888-6.99999848l6.12371776 13.68209256c-18.16849575 19.6559894-56.87433042 36.26226451-72.56344882 26.78205635-25.08363908-15.15688224-30.87434134-69.29295872-29.96509768-99.9546176z"/>
        <path fill="rgb(221,227,233)" fill-rule="evenodd" d="M90 114h76.5114507c3.4961831 0 2.83739407-5.0483629 2.33199964-7.59579448-5.8328626-29.40043923-28.60214608-61.09269004-28.60214608-102.94347522L118.1718001 0C99.91748497 29.35840682 93.6048263 65.50454992 90 114z"/>
        <path fill="rgb(255,65,51)" fill-rule="evenodd" d="M27 141.85882568Q42.49589157 45.75659943 116.7480545 0h8.73834229s29.71878815 101.30541992 16.38588715 135H73c1.08963013-16.43654633 4.58339691-33.81879425 9.36875916-50.76683044Q58.97270584 126.43515015 43.03744506 145L27 141.85882568z"/>
      </g>
    </g>
  </g>
</svg>
